<svg width="30" height="32" viewBox="0 0 30 32" fill="none" xmlns="http://www.w3.org/2000/svg">
<path d="M9.71592 0.0431423C8.91976 0.118174 8.45654 0.198206 7.82202 0.368275C6.32862 0.768438 4.96308 1.50124 3.72059 2.57167C3.40937 2.83928 2.73866 3.53456 2.48051 3.8572C1.11257 5.56539 0.29952 7.52869 0.0799726 9.67207C-0.00929373 10.5224 -0.0189442 10.825 0.0268953 11.3978C0.0510214 11.6929 0.0847978 12.058 0.104099 12.2106C0.357422 14.2564 1.17047 16.1697 2.46363 17.7754C2.71212 18.0855 3.29356 18.6932 3.61203 18.9809C5.03546 20.2639 6.73394 21.1117 8.58923 21.4644C9.5784 21.652 10.8643 21.6795 11.8752 21.5369C13.4024 21.3193 14.9754 20.6991 16.2203 19.8262C16.3168 19.7612 16.4181 19.6912 16.4471 19.6761C16.4977 19.6486 16.8259 19.9813 22.3556 25.7111C27.0143 30.5381 28.2327 31.7886 28.3292 31.8386C28.5173 31.9336 28.7924 32.0112 28.9058 31.9987C29.1929 31.9662 29.4365 31.8511 29.6392 31.646C29.8419 31.4434 29.9673 31.1708 29.9987 30.8657C30.0107 30.7507 29.9384 30.463 29.8443 30.268C29.796 30.1679 28.6018 28.9174 23.9841 24.128C20.7946 20.8191 18.1842 18.1055 18.1842 18.0955C18.1842 18.0855 18.2589 17.9905 18.3482 17.8804C20.9442 14.7566 21.6052 10.3774 20.0491 6.59831C19.7958 5.98557 19.5232 5.46285 19.1347 4.8576C17.9501 3.00685 16.2492 1.57877 14.2637 0.770939C13.2359 0.350767 12.4084 0.15819 11.1514 0.0431423C10.5217 -0.0143814 10.3384 -0.0143814 9.71592 0.0431423ZM11.4892 2.35408C13.0622 2.58418 14.4036 3.17942 15.6268 4.19233C15.9115 4.42993 16.4398 4.96015 16.6883 5.25777C18.5147 7.46367 19.1323 10.4024 18.3627 13.1985C18.0901 14.1864 17.5545 15.2719 16.9441 16.0747C15.2625 18.2856 12.7196 19.4911 10.032 19.3485C7.19474 19.1985 4.66633 17.5678 3.25255 14.9817C2.78933 14.1339 2.4395 13.066 2.29957 12.073C2.17411 11.1827 2.191 10.1598 2.34541 9.28441C2.92685 6.00557 5.33945 3.34699 8.46136 2.54416C8.88357 2.43412 9.30095 2.36409 9.84861 2.30907C10.0754 2.28656 11.2359 2.31907 11.4892 2.35408Z" fill="#5C5C5C"/>
</svg>
